<?xml version="1.0" standalone="no"?>
<!DOCTYPE svg PUBLIC "-//W3C//DTD SVG 20010904//EN"
 "http://www.w3.org/TR/2001/REC-SVG-20010904/DTD/svg10.dtd">
<svg version="1.0" xmlns="http://www.w3.org/2000/svg"
 width="260.000000pt" height="260.000000pt" viewBox="0 0 260.000000 260.000000"
 preserveAspectRatio="xMidYMid meet">
<metadata>
Created by potrace 1.11, written by Peter Selinger 2001-2013
</metadata>
<g transform="translate(0.000000,260.000000) scale(0.100000,-0.100000)"
fill="#000000" stroke="none">
<path d="M976 1945 c100 -96 119 -125 78 -125 -8 0 -14 -3 -14 -7 0 -4 43 -50
95 -104 95 -96 112 -128 79 -147 -12 -7 -2 -14 43 -34 77 -34 127 -40 215 -27
40 6 123 18 184 28 l111 16 -114 200 c-63 110 -126 212 -140 227 -54 57 -91
62 -496 71 l-148 3 107 -101z"/>
<path d="M2313 2025 c-111 -34 -196 -115 -268 -254 -62 -120 -135 -205 -253
-294 -94 -70 -266 -167 -299 -167 -8 0 -11 -4 -8 -10 3 -5 14 -10 23 -10 33
-1 133 -49 185 -88 28 -23 70 -64 92 -93 l39 -52 59 64 c134 146 207 268 263
443 50 153 132 219 297 236 109 11 127 20 127 66 0 95 -85 175 -184 173 -17 0
-50 -6 -73 -14z"/>
<path d="M131 1858 c-21 -55 -34 -109 -28 -115 4 -3 32 -8 63 -11 l56 -5 -37
74 c-46 90 -42 87 -54 57z"/>
<path d="M320 1810 c-8 -36 -9 -65 -4 -70 11 -10 114 -30 114 -21 0 3 -22 39
-49 79 l-48 73 -13 -61z"/>
<path d="M70 1706 c29 -16 142 -51 330 -101 163 -43 283 -99 333 -154 35 -39
60 -105 111 -292 30 -109 90 -163 291 -265 l98 -49 199 3 c158 2 204 -1 227
-12 15 -8 63 -60 105 -115 42 -55 92 -113 112 -129 58 -48 135 -62 239 -44
l40 7 -55 31 c-82 47 -120 96 -198 256 -39 79 -91 172 -117 205 -127 170 -298
240 -519 214 -143 -17 -170 -15 -204 14 -17 14 -51 69 -80 128 -56 115 -72
133 -158 176 -107 53 -272 88 -539 116 -82 8 -170 17 -195 20 -43 5 -44 5 -20
-9z"/>
<path d="M2137 1425 c-9 -20 -17 -40 -17 -45 0 -11 33 -13 67 -4 l23 6 -22 39
c-12 22 -25 39 -28 39 -3 0 -14 -16 -23 -35z"/>
<path d="M2066 1298 l-26 -43 66 -3 c37 -2 69 0 72 3 6 6 -67 85 -79 85 -5 0
-19 -19 -33 -42z"/>
<path d="M917 866 c-141 -86 -203 -145 -243 -230 -35 -74 -30 -83 23 -37 86
76 172 115 399 181 60 18 113 34 117 37 15 9 -146 76 -193 80 -38 4 -54 -1
-103 -31z"/>
</g>
</svg>
