<svg xmlns="http://www.w3.org/2000/svg" width="2551.2" height="1026.1" viewBox="0 0 2551.2 1026.1"><g fill-rule="evenodd" clip-rule="evenodd"><path fill="#E40F1B" d="M1740.7 1022.7c-31.9-27.4 11.4-146 17.7-171.3 50-184 50-184 50.3-188.8-11.5-3.2-103 103.5-99.9 20.3 1.4-8.7 14.8-185.3 54.8-128.7-5.3 38.2-15.3 75.9-18.3 114.3 14.3 5.3 76.7-59.8 83.3-67.2 1.2-2.6 3.6-11.1 7-22.8 13.9-48.1 47.7-154.1 77-122.3 4.5 4.9 7.5 10.1 9.3 15.7 8.4 25.6-10.7 56.7-30.9 85.9-15.4 22.2-31.6 43.2-36.7 59.7-40.6 129.3-70.3 256-90 390-9.1 10.9-9.8 13.7-23.6 15.2z"/><path fill="#F8B00F" d="M477.2 727.2c-46.7-6.7-57.6-52-59.3-91.3-19.7-7.3-71.4 100.9-97 44.5-1.7-34.8 22.3-90.3 41-120.5 39 .9 17.2 36.3 13.6 61.3 16.6 4.7 54.4-82.2 72.2-26.2 3.6 20.5-3.6 115.6 43.9 89.1 6.4-6.4 12.4-14.9 17.6-24.7 21.3-40.3 23.4-96-7.9-126.7-1-.9-1.4-1.8-1.5-2.5-.4-3.4 8-5.3 16.3-5.7 6.3-.3 12.7.3 15.1 1.6 64.4 36.6 18.6 196.3-54 201.1zM313.7 718.7c-54.4-6.1-54.2-87.3-57-125.5-14.7 1.8-47.8 50.5-56 60-16 25.1-23.9 80.4-56.4 43.6-.3-1.4-.6-2.9-.9-4.4 26.2-92.8 41.5-162.5 35.3-259.2 52.7-44.3 38.3 94.5 35.2 110.7-5.2 16.8-8.7 29-10.7 37.4-8.2 34.3 7.7 1.1 47.5-34.1 6.2-5.5 11.7-9.6 16.5-12.3 22.1-12.7 28.7 2.1 30 24.2 1 16.8-1.1 37.9-1.7 54.3-1.5 37.1 7.3 64.8 27 96.5-.1 8-1 8.3-8.8 8.8z"/><path fill="#E40F1B" d="M2167.7 717.7c-42-5.8-56.5-29.4-79.3-62.8-20.1 0-39.1 82.6-69.5 28.5-1.2-38.1 35.4-137.8-32.3-70.2-25.5 29.3-42.1 62.6-65.4 93-48.3 24.1-10.3-96.7-9.9-98.7 2.3-21.9 2.6-90.9 40.2-59.3 1.3 2.8 1.5 6.9 1 11.5-1.8 18.9-12.1 48.8 5 34.5 4.6-3.8 9.2-7.7 13.9-11.5 21.5-17.5 44.7-33.4 63.1-31.3 14 1.6 25.2 13.7 30.8 43.5 6.1 32.3 8.7-2.7 32.3 10.3 24.1 26.7 31.8 60.9 64.5 79 6.3 1.6 32 9.1 35.4 3.1-2.9-24.6-12.3-141.8 4.6-151.4 44.5.6 134.8-54.4 138.7 32-10.3 30-26.6-17.9-48.5-21.5-81.8 2.9-50.8 104.6-61.1 155-10.1 18.8-45.1 15.4-63.5 16.3z"/><path fill="#F8B00F" d="M1257.1 716.2c-135.4-32 14-279.1 90.5-195 6.4 16.3 6 22-12.5 22-57.7-29.1-124.8 94.9-82.3 142.2 39.5 21.4 95.1-63.3 69.3-97.3-25.9 0-13.1 46.3-38.1 42.6-38.2-40.2 30.7-110.8 70.6-61.5 5.9 13.7 8.6 27.5 8.5 40.9-.1 55.1-46.9 102.5-106 106.1zM780.7 711.7c-17.6-7.2-17.6-29.6-18.7-46.3.2-20.4-9.4-121.4 8.3-130.2 30.9 2 58.3-17.4 94.7-16.3 49 9.1 44.7 69.2 29.3 57.8-46.7-61.5-89-16.7-94.8 45.7-.1 21.9 15.4 87-18.8 89.3z"/><path fill="#E40F1B" d="M2483.7 710.7c-39.5-4.9-12.1-72.6-23-83.5-28.7 16.1-77.8 80.5-116 50-29.7-37.1 18.2-174.6 47.7-114.3-1.2 29.6-23.5 52.6-23.5 83.5 33.3-.7 83-44.7 108.4-62.2 4.8-5.6 56.7-95.7 67.2-33.8-6.1 9.9-12 19.2-17.4 28.3-22.4 37.4-34.8 70.2-26.7 119.2.3 1.6.4 2.9.5 4.1.3 5.5-1.5 7.4-5.3 8.1-2.9.5-6.9.4-11.9.6z"/><path fill="#F8B00F" d="M76.2 709.2c-104-23.3-83.9-181.7 11.7-200.7 105.8-2.5 57.5 102.3 27 80 0-16.7 10.2-25.6 3.8-42.4-45.7-41.8-134.2 128.1-23.8 135.3 6.4-1 33.6-7.8 38.7-2.7-5.6 25-36.2 30-57.4 30.5z"/><path fill="#E40F1B" d="M1630.2 709.2c-104.6-21-85-181.5 10.7-200.7 102.5-2.3 59.3 104.6 26.8 79.8.4-14.9 10.6-26.1 5-41-51.3-41-121.8 113.3-40.2 133.2 17.5.5 73.2-14.6 45.3 13.8-18.2 11.5-25.9 14.3-47.6 14.9z"/><path fill="#F8B00F" d="M1518.7 705.7c-56.1-8.1 1.8-113.8-10.9-144.5-35.1 30.2-63.8 64.9-95 99-57.8 46.2-31.5-50.8-26.8-76.3 1.6-39.6 42.3-25.9 39.4 10.7 31.8-9.5 74.1-104.8 117.4-61.4 22.6 54.8-25.8 105.6-11.3 162.7-.1 1.9-.2 3.4-.5 4.6-1.5 4.9-5.1 4.3-12.3 5.2zM715.7 669.2c-14.7-40.7 22.7-83.2 22-125-53.3-89.4-275.7 148.2-121 170.5 36.9-3 59.3-47.7 92.4-14.5 39 0 40.9-2.1 6.6-31zm-98.5 16c-58.2-12.9 63.6-133.9 80.5-123.1 15.3 48.3-32.4 116.3-80.5 123.1zM1026.7 672.2c-29.5-36.9 35.6-95.3 13-138-59-59-266.2 156.1-115.1 180.5 25.6-2.6 39.5-13.7 60.6-28.5 10.6 0 19.8 7.8 28.9 13 31.2 0 50.9 6.3 12.6-27zm-101.5 13c-58.8-13 65.9-139.1 81.5-121 9.4 49.3-30.9 114.3-81.5 121zM1145.9 678.5c-22.5 1-76.2-22.5-23.5-26.5 49.2-9.6 79.7-74.5 59.2-119.7-75-85.9-216.7 147.5-56.4 172.9 26.8-2.4 43.3-6 64.5-25.1 27.2-39.1-28.5-4.6-43.8-1.6zm5.5-131.6c0 40-9.6 70.2-51.7 73.8-28.1-5.7 21.6-76.7 51.7-73.8zM264.7 506.7c-13.2-1.7-14.4-18-16.8-28.3-10.9-78-23.2-153.9-38-231-1.2-37.5 17.6-30.3 31.5-58.2 17.9-8.4 37.3 1.3 36.6 22.2 9.5 9.5 34.6 17.3 47.2 23.2 83.9 48 111.6 129.6-8.8 132.7-14.7-1.6-24.5-6.1-30.3-12.2-24-25.1 24.1-85.2 51.3-60.3 1.1 1 1.6 2.2 1.6 3.6 0 6.3-10.3 17.5-16.6 26.1-4.9 6.5-7.4 11.4-1.4 11.4 101.8-.6-9.6-98.7-46.2-91.2-16.8 36.6-4.5 96.6-1.3 135.2 8 66 15 112 15 118.5-9.6 5.3-13.7 7.6-23.8 8.3z"/><path fill="#E40F1B" d="M1633.2 408.2c-78.8-15.8-9.4-112.1 24.5-85-3.5 15.7-44.6 44.6-6.8 45.2 121.5-22.1-54.9-127.5 5.8-198.2 26.1-15.8 51.3-11.1 78 3 32.3 23.8 5.2 67.9-13.2 34.7-1.9-23-14-15.7-33.2-15.7-9.6 6.7-12.9 15.1-12.2 24.9 2.8 40.1 78.3 105.1 47.7 150.6-2.4 3.6-4.9 6.9-7.6 9.9-12.1 13.9-26.4 21.6-42.7 25.8-12.4 3.3-25.9 4.5-40.3 4.8zM1365.1 407.2c-63.8-7.8 26.6-349.3 33.6-388 3.4-19 34.8-22.8 34.2-.3-24.1 113.3-54 226-54 342.5 4.2 14.8 85.8-47.2 53.8 1.8-18.2 18.3-41.3 47.3-67.6 44z"/><path fill="#F8B00F" d="M85.7 406.7c-97.1-11.7 1.2-115.8 19.8-83.7-3.3 6.4-33.2 37.9-18.6 43.8 29.5 1 65.4-13.5 55.9-48.5-23.1-46.9-107.9-155.3 3.5-159 26.4 4.7 72.6 23 48 57-28.9 19.8-17.6-50-64.7-21.2-7.1 7.5-8.6 16.2-6.7 25.9 7.9 39.9 77.9 98 49.6 143.2-2.3 3.6-4.6 6.9-7.1 9.9-11.4 13.9-24.8 21.7-40.4 26.2-11.7 3.6-24.8 5.3-39.3 6.4z"/><path fill="#E40F1B" d="M1050.1 404.2c-44.1-12.2-51.5-51.6-55.9-92.6-25.3 0-67 100.2-95.4 41.8 8.1-103 74.9-170.8 161.8-218.2 59-28.6 121.6-42.5 187.3-48.8 54.3-5.2 43.2-3.3 62-4.1-16.4-7.6-42.5-15.1-29-28.6 1.8-1.8 6.6-2.7 11-.9l61.5 25.7c2.9 1.2 4.8 7.8 2.1 9.5l-53.8 32.3c-14.1 8.4-25.4-4.1-13.3-14.3 4.7-4 28.8-16.8 22.8-16.1-131 15.6-321.6 53.5-358.8 203.5-4 16.2 44.2-61.9 68.3-32.2 6.8 17.8 5.5 156.2 60 87 17.1-34.2 37.9-98.4 8.6-131-28.7-24.3 33.3-23.6 46.2 21.7 9.5 58.5-14.4 161.8-85.4 165.3z"/><path fill="#F8B00F" d="M465.7 391.7c-124.6-24 5.3-276.3 92-197.5 27.1 40.6-32 13.5-41.5 23-36.3 0-69 80.2-67.3 111.2 24 98.6 121.1-36.2 83-65.5-20.8.8-19.8 62.8-41.1 39.1-27.6-66.4 68.5-111.1 85.1-31.6-.3 13.4-2 26.1-5.2 37.8-13 48.3-50 80.5-105 83.5zM615 388.5c-33.3-2.2-16.5-118.3-21.2-150-4.8-32.7 9.1-30.3 25.6-26.1 34.7-25.2 129.1-32.3 119.4 32.6-3.7 24.9-18.1-1.5-26.7-12.9-13-17.2-42.5-11.5-58 2.3-52.2 46.3.7 156.7-39.1 154.1z"/><path fill="#E40F1B" d="M1309.9 268.9c10.8-45.1-18.6-63.6-59.3-42.7-46.6 31.9-190.5 155-63 183.5 27.6-1.4 42.1-9.9 63.5-27.4 4 0 66.5 31.2 66.5 5-46.4-40.3-26.8-60.4-7.7-118.4zm-119.7 111.3c-1.7-1.7-11.2-4.6-13.5-6 .6-32.4 74.2-131.3 96.8-117.3 19.8 45.5-36.8 121.5-83.3 123.3z"/><path fill="#F8B00F" d="M886.6 179.3c2.7-41.4 16.2-82.9 26.9-122.8.5-14.9-7.3-27.2-24.3-27.2-30.6 20.4-33.5 126.2-37.7 153.2-33.3 7.1-96.6 15.3-98.5 59 13.5 56.5 69.9 122.5 108.2 163.8 3.3-.6 5.3.2 5.8-3.3 1.1-7.6 1.4-12.4 1.9-22 .7-12.7 1.8-33.9 5.4-81.3.8-10.3 1.7-21.7 2.7-34.6 4.9-62.9 3.1-56.5 41.4-57.8 9.3-.3 21-1.1 35.9-3.4 1.5-20.7-63.8-22.9-67.7-23.6zm-48.4 151.9c-15-12.9-55.1-65.7-45.8-90.9 8.1-9.3 44.8-30 55.9-23.6-.9 13.6-2.6 110.8-10.1 114.5z"/><path fill="#E40F1B" d="M1537.9 355.5c-20.3.8-71.7-25-27.5-26.6 50.8-8.9 91.4-75 63.3-123.7-71.2-80.9-215 146.4-58.5 176 35.1-.8 59-7.9 77.5-40 0-9.2-48.6 12.5-54.8 14.3zm6.5-132.6c0 40.6-7.8 70.3-51.8 73.8-27.9-6.2 25.4-73.8 51.8-73.8z"/></g></svg>